<?xml version="1.0" encoding="utf-8"?>
<!-- Generator: Adobe Illustrator 16.0.0, SVG Export Plug-In . SVG Version: 6.00 Build 0)  -->
<!DOCTYPE svg PUBLIC "-//W3C//DTD SVG 1.1//EN" "http://www.w3.org/Graphics/SVG/1.1/DTD/svg11.dtd">
<svg version="1.1" id="Capa_1" xmlns="http://www.w3.org/2000/svg" xmlns:xlink="http://www.w3.org/1999/xlink" x="0px" y="0px"
	 width="29px" height="37px" viewBox="0 0 29 37" enable-background="new 0 0 29 37" xml:space="preserve">
<g>
	<g>
		<path fill="#CC9A4B" d="M21.805,10.522v-1.07c0.708-1.237,0.835-2.531,0.846-2.673c0-1.546-1.085-4.643-5.175-5.324
			c-2.153-0.36-2.963-0.711-3.555-0.964C13.307,0.227,12.775,0,11.541,0C6.166,0,0.438,0.522,0.438,6.779
			c0,1.794,0.64,3.889,2.445,3.896v24.007c0,0,0.521,2.318,9.46,2.318c8.935,0,9.462-2.318,9.462-2.318v-3.131
			c3.773-0.217,6.758-2.463,6.758-5.237V15.757C28.562,12.988,25.578,10.738,21.805,10.522 M19.492,30.627
			c0,0-0.132,2.318-7.149,2.318c-7.021,0-7.04-2.318-7.04-2.318V9.043c0.377,0.47,1.043,0.824,2.31,0.882v18.458
			c0,0.652-0.301,1.183-0.676,1.183s-0.676-0.53-0.676-1.183v1.183c0,0.747,0.604,1.352,1.352,1.352
			c0.744,0,1.352-0.604,1.352-1.352V12.732c0.233,0.625,0.66,1.203,1.536,1.497l0.598,0.195c0.67,0.214,1.019,0.346,1.245,0.507
			v14.805c0,0.651-0.303,1.182-0.676,1.182c-0.374,0-0.675-0.53-0.675-1.182v1.182c0,0.747,0.604,1.353,1.351,1.353
			c0.744,0,1.352-0.605,1.352-1.353V21.71c0.47,1.108,1.156,1.942,2.169,1.942c0.262,0,0.72-0.053,1.212-0.279v5.01
			c0,0.652-0.303,1.183-0.678,1.183s-0.677-0.53-0.677-1.183v1.183c0,0.747,0.604,1.352,1.354,1.352
			c0.744,0,1.351-0.604,1.351-1.352v-7.554c0.357-0.682,0.618-1.614,0.618-2.979c0-3.659,0.22-5.57,0.448-6.595V30.627
			L19.492,30.627z M20.162,8.252c-0.242,0.479-0.607,0.955-1.146,1.224c-0.264,0.138-0.491,0.365-0.703,0.64
			c-0.723,0.971-1.112,2.888-1.238,6.14c-0.039,0.845-0.06,1.746-0.06,2.777c0,0.597-0.078,2.492-1.072,2.59
			c-0.524-0.457-1.225-3.209-1.225-5.473c0-1.463-0.364-2.239-1.024-2.756c-0.381-0.295-0.853-0.512-1.42-0.713
			c-0.18-0.063-0.358-0.126-0.555-0.187l-0.517-0.166l-0.062-0.022c-0.061-0.021-0.104-0.05-0.149-0.089
			c-0.167-0.128-0.243-0.412-0.312-1.236C10.595,9.994,10.426,7.93,7.94,7.93c-0.872,0-1.075-0.152-1.13-0.28
			C6.665,7.301,6.327,6.484,5.056,6.484c-1.45,0-1.852,1.203-2.047,1.778c-0.048,0.148-0.122,0.37-0.091,0.397
			c-0.202-0.137-0.45-1.033-0.453-1.88c0-3.554,2.288-4.751,9.076-4.751c0.817,0,1.056,0.103,1.578,0.327
			c0.687,0.296,1.629,0.7,4.024,1.099c3.331,0.553,3.468,3.054,3.482,3.237C20.626,6.699,20.547,7.486,20.162,8.252 M26.075,24.996
			c0,1.473-0.774,4.205-4.271,4.495v-16.24c4.224,0.256,4.271,3.094,4.271,4.583V24.996z M26.075,24.996"/>
	</g>
</g>
</svg>
