<?xml version="1.0" encoding="utf-8"?>
<!-- Generator: Adobe Illustrator 16.0.0, SVG Export Plug-In . SVG Version: 6.00 Build 0)  -->
<!DOCTYPE svg PUBLIC "-//W3C//DTD SVG 1.1//EN" "http://www.w3.org/Graphics/SVG/1.1/DTD/svg11.dtd">
<svg version="1.1" id="Capa_1" xmlns="http://www.w3.org/2000/svg" xmlns:xlink="http://www.w3.org/1999/xlink" x="0px" y="0px"
	 width="90px" height="90px" viewBox="0 0 90 90" enable-background="new 0 0 90 90" xml:space="preserve">
<g>
	<path fill-rule="evenodd" clip-rule="evenodd" fill="#A23025" d="M34.562,55.972c-3.349-2.156-7.895-2.535-15.224-0.501
		c-7.814,1.835-10.419,3.013-13.841,0.65c-1.314-1.162-1.785-3.03-1.434-5.723c0.816-4.389,3.021-8.612,6.939-13.297
		c2.187-2.437,4.215-4.528,6.894-5.368c2.054-0.526,1.861,1.087,1.613,1.317c-0.263,0-0.703,0.041-1.043,0.264
		c-0.276,0.214-1.034,0.905-1.075,1.836c-0.059,1.425,1.415,1.128,2.051,0.346c0.686-0.881,1.698-2.568,0.901-4.142
		c-0.334-0.56-0.91-0.946-1.627-1.078c-2.452-0.14-4.737,1.029-6.845,2.321c-4.61,3.203-8.299,7.641-10.386,12.499
		c-1.203,2.93-2.291,7.129-0.66,10.546c1.262,2.371,3.881,3.631,7.006,3.367c2.192-0.23,4.842-0.938,6.625-1.367
		c1.782-0.428,10.907-3.563,13.905,1.895c0,0,0.997-1.935,3.488-1.976c2.049-0.19,5.003,0.592,7.155,2.173
		C38.289,58.655,36.257,57.067,34.562,55.972L34.562,55.972z"/>
	<path fill-rule="evenodd" clip-rule="evenodd" fill="#A23025" d="M20.268,37.653c-1.706-1.12-5.137,1.021-7.884,4.693
		c-2.512,3.293-3.597,7.121-2.416,8.892c1.756,2.083,5.016-0.947,6.402-2.569l0.179-0.189c0.943-1.013,1.672-2.23,2.376-3.4
		c0,0,0.648-1.069,0.68-1.119c0.4-0.074,0.883-0.189,1.427-0.346c-0.008,0.024-2.08,3.507-1.869,5.236
		c0.066,0.526,0.016,2.453,1.896,3.038c2.508,0.42,4.509-1.523,6.275-3.253c0,0,0.301-0.288,0.471-0.452
		c-0.043,0.173-0.099,0.403-0.099,0.403c-0.734,2.553,0.255,3.088,0.874,3.284c1.87,0.545,4.104-2.172,4.111-2.172
		c-0.058,0.855-0.227,1.563,0.675,2.132c0.852,0.305,1.714-0.148,2.369-0.584c2.359-1.664,4.261-4.282,5.796-6.505h-0.979
		c-0.011,0.017-2.416,3.475-3.979,4.231c-0.002,0-0.286,0.141-0.45,0.024c-0.203-0.172-0.123-0.559,0.003-0.814
		c0.008-0.017,6.029-10.489,6.029-10.489h-2.843c0,0-0.311,0.527-0.336,0.561c-0.02-0.017-0.065-0.091-0.097-0.133
		c-1.762-2.437-5.752,1.318-8.755,5.665c-1.156,1.671-2.629,3.557-4.155,4.915c0,0-2.262,2.075-3.229,0.584
		c-0.353-0.626-0.244-1.539-0.045-2.14c1.125-3.203,3.063-6.109,5.27-7.863c0.623-0.485,1.3-0.626,1.636-0.42
		c0.32,0.189,0.372,0.659,0.169,0.98c-0.514-0.017-0.925,0.14-1.26,0.485c-0.659,0.691-0.889,1.358-0.679,1.984
		c1.019,1.449,3.049-1.416,2.95-3.162c-0.035-0.625-0.369-1.218-0.867-1.507c-0.742-0.444-1.875-0.329-2.608,0.025
		c-0.981,0.371-2.535,1.663-3.441,2.668c-1.142,1.26-3.1,2.659-3.712,2.502C20.354,42.305,22.008,38.921,20.268,37.653
		L20.268,37.653z M33.978,42.659c0.553-0.766,2.163-2.815,2.556-3.161c1.32-1.161,1.848-0.65,1.894-0.288
		c-1.232,2.206-2.687,4.733-4.054,7.006c0.003-0.009-0.428,0.649-0.428,0.649c-0.604,0.923-1.212,1.714-2.203,2.265
		c-0.142,0.041-0.375,0.059-0.529-0.057c-0.188-0.124-0.261-0.33-0.24-0.544C31.032,47.821,31.753,45.656,33.978,42.659
		L33.978,42.659z M18.508,43.984c0,0-0.024,0.074-0.037,0.1c-0.003,0-1.239,2.016-1.239,2.016c-0.746,0.997-1.678,2.248-2.843,2.85
		c-0.346,0.114-0.822,0.189-1.065-0.115c-0.516-0.617-0.25-1.475-0.034-2.165l0.076-0.247c0.619-1.68,1.602-3.162,2.557-4.537
		c0.013-0.008,0.039-0.016,0.049-0.016c0.002,0.008,0.006,0.008,0.008,0.024c0.6,1.152,1.725,1.688,2.565,1.935
		c0.005,0,0.011,0.009,0.011,0.025C18.555,43.878,18.541,43.911,18.508,43.984L18.508,43.984z M19.68,41.605
		c-0.005,0.017-0.551,1.268-0.551,1.268c-0.079,0.066-0.204,0.033-0.347,0l-0.244-0.041c-0.77-0.239-1.349-0.749-1.527-1.358
		c-0.247-1.186,0.766-2.116,1.212-2.453c0.428-0.297,1.094-0.453,1.48-0.148c0.238,0.279,0.329,0.642,0.329,1.037
		C20.032,40.444,19.867,41.046,19.68,41.605L19.68,41.605z"/>
	<path fill-rule="evenodd" clip-rule="evenodd" fill="#A23025" d="M55.628,45.426c-0.273-0.593-0.925-0.972-1.618-0.931
		c-2.253,0.206-4.456,2.059-5.613,4.718c-0.606,1.366-0.938,2.494-1.155,4.289c0.7-0.807,2.129-2.133,3.75-2.856
		c0,0,0.221-1.722,1.346-3.252c0.426-0.634,1.278-1.655,2.234-1.384c0.836,0.28,0.543,2.594-0.568,4.833
		c-0.822,1.646-2.08,3.293-3.353,4.43c-1.125,0.954-2.789,2.107-4.246,1.218c-0.917-0.543-1.385-1.68-1.286-3.145
		c0.438-4.157,2.331-7.698,5.039-11.732c2.793-3.746,5.871-7.591,10.019-9.641c0.846-0.429,1.629-0.527,2.307-0.264
		c0,0-3.894,2.141-5.749,6.101c-0.472,1.005-1.129,2.363-0.468,3.565c0.346,0.625,0.96,0.675,1.453,0.643
		c2.274-0.527,3.744-2.651,4.945-4.595c0.696-1.474,1.314-2.939,1.314-4.569c0-0.198-0.01-0.461-0.026-0.659
		c1.086-0.576,3.314,0.445,3.314,0.445c1.741,0.576,5.449,3.417,6.7,3.96c0.61-0.708,1.612-1.778,2.177-2.313l-0.816-0.503
		c-1.309-0.798-2.691-1.556-4.054-2.305c-3.091-1.688-5.607-1.095-6.888-0.634c-0.504,0.181-0.964,0.337-0.964,0.337
		c-0.95-1.037-2.509-0.938-3.657-0.658c-4.13,1.186-7.965,4.075-12.076,9.09c-3.022,3.927-4.897,7.318-5.897,10.67
		c-0.77,2.256-1.004,5.574,0.876,7.541c1.599,1.672,3.718,1.31,5.216,0.708c3.242-1.597,6.157-5.038,7.609-8.999
		C55.842,48.356,56.231,46.693,55.628,45.426L55.628,45.426z M63.085,33.018c-0.429,4.924-4.256,7.814-5.203,8.044
		c-0.573,0.115-1.553-0.14-0.679-2.206c1.287-2.783,3.484-5.146,5.844-6.355C63.104,32.705,63.102,32.837,63.085,33.018
		L63.085,33.018z"/>
	<path fill-rule="evenodd" clip-rule="evenodd" fill="#A23025" d="M85.788,33.644c-2.06,1.169-4.192,1.927-6.776,1.663
		c-0.716,0.808-1.413,1.639-2.056,2.495c3.625,0.922,7.47-1.128,9.613-3.079C88.838,32.755,90,30.276,90,30.276
		S88.301,32.22,85.788,33.644L85.788,33.644z"/>
	<polygon fill-rule="evenodd" clip-rule="evenodd" fill="#A23025" points="46.882,37.694 44.182,37.694 42.658,40.271 
		45.358,40.271 46.882,37.694 	"/>
	<path fill-rule="evenodd" clip-rule="evenodd" fill="#A23025" d="M79.001,56.227c-0.29,0.198-0.698,0.034-0.546-0.419
		c0.38-1.153,1.891-3.523,1.891-3.523l4.207-7.484h-2.882c-0.137,0.247-0.43,0.757-0.43,0.757c-0.134-0.222-0.532-0.708-0.696-0.814
		c-0.704-0.444-1.737-0.23-2.45,0.173c-3.098,1.811-5.358,5.393-7.142,8.184c0,0-1.876,3.104-2.918,3.334
		c-0.812,0.065-0.729-1.028-0.694-1.284c0.314-1.844,1.045-3.598,1.781-5.187c1.495-1.038,3.204-2.396,4.756-3.887
		c3.368-3.219,6.207-6.865,6.622-7.681c0,0-0.449,0.091-0.979,0.106c-2.591,3.614-7.894,8.867-9.501,9.649
		c0.712-1.713,5.313-9.888,9.229-13.799l0.616-0.593c0.952-0.93,1.939-1.886,2.709-2.042c0.081-0.008,0.186,0,0.276,0.189
		c0.033,0.725-0.235,1.26-0.545,1.869l-0.434,0.89c0,0,0.614-0.115,1.018-0.247c0.469-0.881,0.986-1.869,0.796-3.046
		c-0.064-0.38-0.338-0.668-0.696-0.733c-1.168-0.223-2.441,0.643-3.466,1.342l-0.041,0.024c-5.265,4.125-9.711,10.069-13.598,18.188
		c-0.283,0.214-1.37,0.469-1.556,0.346c0.384-0.79,0.867-1.852,1.109-3.005c0.042-0.329,0.08-0.668,0.08-0.996
		c0-0.709-0.17-1.375-0.805-1.836c-0.744-0.371-1.664-0.197-2.284,0.082c-2.779,1.152-4.855,4.001-6.354,6.348
		c-0.807,1.49-1.609,3.088-1.832,4.915c-0.157,1.433,0.162,2.354,0.977,2.816c0.838,0.428,1.892-0.017,2.306-0.231
		c2.814-1.481,4.781-4.454,6.332-7.171c0.062-0.008,0.908-0.032,1.548-0.197c0.009,0,0.013,0,0.026,0.009
		c-0.036,0.123-0.367,1.11-0.367,1.11c-0.983,2.882-1.438,4.842-0.509,6.002c1.326,1.639,3.521-0.057,5.308-2.297
		c-0.383,2.685,1.008,3.104,2.068,2.898c1.218-0.33,2.575-1.63,3.205-2.297c-0.202,0.782-0.146,2.182,0.961,2.321
		c0.759,0.14,1.327-0.247,1.985-0.602c2.359-1.284,5.184-5.589,5.916-6.774h-0.961C81.995,53.173,80.669,55.248,79.001,56.227
		L79.001,56.227z M57.826,55.914c-0.149-0.223-0.199-0.478-0.204-0.741c-0.028-1.612,1.708-4.486,2.935-6.092
		c0.002,0,0.002,0,0.002,0c0.515,1.193,1.678,1.86,2.38,2.166C62.066,53.189,59.074,57.363,57.826,55.914L57.826,55.914z
		 M63.431,50.39c-0.083,0.058-1.55-0.437-1.833-1.795c-0.241-1.169,0.564-2.082,1.344-2.544c0.334-0.264,0.838-0.354,1.208-0.223
		c0.343,0.231,0.436,0.643,0.436,1.088c0,0.271-0.036,0.551-0.067,0.807c0,0-0.007,0.049-0.008,0.057
		C64.266,48.694,63.891,49.592,63.431,50.39L63.431,50.39z M75.198,55.396c-0.001,0-0.278,0.247-0.278,0.247
		c-0.396,0.354-0.803,0.733-1.295,0.543c-0.136-0.049-0.231-0.23-0.254-0.37c-0.022-1.013,0.434-1.951,0.876-2.865l0.113-0.238
		c1.272-2.125,2.751-4.627,4.923-6.365c0.365-0.263,0.763-0.485,1.182-0.312c0.097,0.092,0.209,0.247,0.209,0.403
		c0,0.05-0.044,0.181-0.069,0.223c-0.606,0.979-1.185,2.009-1.746,2.997C77.761,51.608,76.622,53.625,75.198,55.396L75.198,55.396z"
		/>
</g>
</svg>
