<?xml version="1.0" encoding="utf-8"?>
<!-- Generator: Adobe Illustrator 16.0.0, SVG Export Plug-In . SVG Version: 6.00 Build 0)  -->
<!DOCTYPE svg PUBLIC "-//W3C//DTD SVG 1.1//EN" "http://www.w3.org/Graphics/SVG/1.1/DTD/svg11.dtd">
<svg version="1.1" id="Capa_1" xmlns="http://www.w3.org/2000/svg" xmlns:xlink="http://www.w3.org/1999/xlink" x="0px" y="0px"
	 width="90px" height="90px" viewBox="0 0 90 90" enable-background="new 0 0 90 90" xml:space="preserve">
<g>
	<g>
		<path d="M38.264,32.492c0-1.725,1.144-2.434,2.435-2.434c0.515,0,0.983,0.073,1.271,0.153l0.073,1.385h-0.208
			c-0.194-0.415-0.381-0.722-0.535-0.943c-0.174-0.228-0.348-0.314-0.676-0.314c-0.782,0-1.077,0.568-1.077,2.02
			c0,1.739,0.341,2.214,1.077,2.214c0.388,0,0.568-0.107,0.763-0.375c0.18-0.254,0.334-0.542,0.508-0.956h0.194l-0.074,1.337
			c-0.314,0.134-0.816,0.274-1.465,0.274C39.227,34.854,38.264,34.078,38.264,32.492z"/>
		<path d="M43.173,34.586l0.227-0.047c0.201-0.053,0.261-0.08,0.261-0.488v-3.19c0-0.408-0.061-0.442-0.261-0.488l-0.227-0.047
			v-0.187h3.671l0.067,1.351h-0.208c-0.167-0.375-0.28-0.568-0.382-0.716c-0.213-0.314-0.36-0.341-0.828-0.341
			c-0.348,0-0.515,0.04-0.615,0.067v1.726h0.181c0.475,0,0.582-0.054,0.662-0.201c0.094-0.167,0.146-0.301,0.207-0.515h0.2v1.746
			h-0.2c-0.061-0.208-0.113-0.348-0.207-0.542c-0.081-0.167-0.167-0.201-0.662-0.201h-0.181v1.297c0,0.602,0.02,0.669,0.675,0.669
			c0.542,0,0.649-0.067,0.875-0.401c0.121-0.18,0.255-0.468,0.429-0.896h0.214l-0.094,1.592h-3.805V34.586z"/>
		<path d="M48.108,34.586l0.228-0.047c0.201-0.047,0.262-0.08,0.262-0.488v-3.19c0-0.408-0.061-0.442-0.262-0.488l-0.228-0.047
			v-0.187h2.194c1.324,0,1.873,0.415,1.873,1.224c0,0.576-0.288,0.93-0.91,1.117V32.5c0.274,0.595,0.729,1.391,1.097,1.886
			c0.074,0.101,0.121,0.127,0.254,0.167l0.107,0.034v0.187h-1.484c-0.374-0.515-0.83-1.397-1.076-2.026
			c-0.062,0-0.322,0-0.355-0.006v1.311c0,0.408,0.048,0.441,0.254,0.488l0.228,0.047v0.187h-2.181V34.586z M50.945,31.456
			c0-0.77-0.175-1.023-0.695-1.023c-0.208,0-0.368,0.02-0.442,0.046v1.98c0.033,0.007,0.147,0.027,0.314,0.027
			C50.69,32.486,50.945,32.238,50.945,31.456z"/>
		<path d="M53.722,31.028c-0.168-0.441-0.235-0.609-0.448-0.668l-0.154-0.034v-0.187h2.221v0.187l-0.188,0.047
			c-0.167,0.04-0.234,0.12-0.234,0.26c0,0.114,0.061,0.288,0.127,0.496l0.822,2.394h0.034l0.763-2.388
			c0.066-0.208,0.1-0.354,0.1-0.481c0-0.167-0.073-0.241-0.254-0.281l-0.207-0.047v-0.187h1.371v0.187l-0.167,0.047
			c-0.201,0.06-0.261,0.207-0.422,0.675l-1.29,3.725h-0.663L53.722,31.028z"/>
		<path d="M58.57,34.586l0.228-0.047c0.2-0.053,0.26-0.08,0.26-0.488v-3.19c0-0.408-0.06-0.442-0.26-0.488l-0.228-0.047v-0.187
			h3.672l0.067,1.351h-0.208c-0.167-0.375-0.281-0.568-0.381-0.716c-0.215-0.314-0.361-0.341-0.83-0.341
			c-0.348,0-0.515,0.04-0.615,0.067v1.726h0.181c0.475,0,0.582-0.054,0.662-0.201c0.094-0.167,0.147-0.301,0.207-0.515h0.201v1.746
			h-0.201c-0.06-0.208-0.113-0.348-0.207-0.542c-0.08-0.167-0.167-0.201-0.662-0.201h-0.181v1.297c0,0.602,0.021,0.669,0.676,0.669
			c0.541,0,0.648-0.067,0.876-0.401c0.121-0.18,0.254-0.468,0.429-0.896h0.213l-0.093,1.592H58.57V34.586z"/>
		<path d="M63.514,34.479l2.34-4.046v-0.02h-0.239c-0.917,0-1.03,0.033-1.231,0.308c-0.175,0.247-0.274,0.435-0.488,0.903h-0.201
			l0.081-1.485h3.397v0.294l-2.334,4.026v0.027h0.28c0.963,0,1.091-0.054,1.324-0.361c0.194-0.261,0.321-0.515,0.516-0.983h0.214
			l-0.107,1.631h-3.551V34.479z"/>
		<path d="M68.049,34.586l0.167-0.047c0.2-0.06,0.261-0.127,0.454-0.675l1.345-3.726h0.669l1.384,3.746
			c0.182,0.495,0.254,0.608,0.448,0.668l0.141,0.034v0.187H70.43v-0.187l0.187-0.047c0.175-0.047,0.241-0.127,0.241-0.268
			c0-0.114-0.061-0.294-0.127-0.488l-0.168-0.475h-1.331l-0.16,0.481c-0.061,0.187-0.1,0.341-0.1,0.455
			c0,0.188,0.079,0.241,0.287,0.294l0.188,0.047v0.187h-1.397V34.586z M69.325,33.014h1.138l-0.556-1.632h-0.033L69.325,33.014z"/>
	</g>
	<g>
		<path d="M49.323,45.091c0.51-0.366,0.826-0.543,0.947-0.543c0.878,0,1.465,1.11,1.465,1.863v5.515c0,1.72-1.248,2.522-2.412,3.462
			c-0.091,0.073-0.18,0.146-0.269,0.222l0.193,0.123l0.075-0.039c0.753-0.383,1.209-0.575,1.378-0.575
			c0.668,0,2.302,1.289,2.74,1.894c0.771,1.062-0.876,1.247-0.543,1.58c3.584-0.342,9.758-4.977,8.872-10.737
			c-0.217-1.412-1.105-2.444-1.105-3.797c0-1.149,0.725-1.588,1.379-2.298c-0.41-0.273-0.918,0.264-1.258,0.501
			c-1.945,1.351-2.515,3.355-1.817,5.491c0.413,1.273-0.007,5.304-1.066,6.354c-1.411,1.398-3.889,0.682-3.889-1.443v-7.491
			c0-0.736-0.139-1.755-0.449-2.111c-0.098-0.092-0.209-0.176-0.337-0.245c-1.061-0.553,0.798-1.518,0.034-2.283
			c-0.634,0.901-1.772,2.243-2.795,3.113c-0.1,0.082-0.738,0.538-1.144,0.964c-0.261,0.274-0.425,0.539-0.279,0.685
			C49.144,45.221,49.235,45.153,49.323,45.091z"/>
		<path d="M88.65,54.186c-1.23,0-2.333-1.096-2.456-2.281c-0.188-1.811-1.013-2.998-2.485-3.561
			c-0.322-0.855,4.947-2.66,3.212-5.292c-0.504-0.765-2.609-1.256-2.609-2.149c0-0.621,1.289-1.155,1.289-1.75
			c-1.979,1.98-4.286,3.52-6.197,5.578V32.538c0-2.191,1.029-4.534,3.537-4.534c0.617,0,2.282,0.338,2.282,1.229
			c-1.36,0.02-2.036,0.593-2.036,1.72c0,2.16,3.314,1.975,3.314-0.298c0-1.939-2.111-3.029-3.807-3.029
			c-3.4,0-5.575,2.923-5.575,6.152v18.208c0,1.307-0.577,3.397-1.482,4.067c0,0.113,0.266,0.176,0.788,0.176
			c0.461,0,1.626,1.116,1.626,1.584c0,0.186-0.143,0.532-0.42,1.064l0.41-0.235c0.859-1.121,2.01-1.891,3.08-2.782
			c0-0.144-0.15-0.292-0.451-0.43c-0.846-0.386-1.267-2.87-1.267-3.895v-6.067c0.317-0.539,2.039-2.764,2.679-2.764
			c1.096,1.015,2.781,1.351,2.781,3.062c0,1.765-2.714,3.087-3.989,4.051l0.358,0.123c1.434,0.082,2.316,0.963,2.681,2.661
			c0.367,1.707,0.87,2.558,1.975,3.805c-0.373,0.377-1.441,1.555-1.112,2.186c1.438-1.547,3.102-2.793,4.426-4.343
			C89.731,53.631,90,53.256,90,53.112C89.376,53.829,88.927,54.186,88.65,54.186z"/>
		<path d="M36.804,57.37c-0.025,0.027-1.035,1.155-0.49,1.155c1.316-1.276,2.058-1.775,3.321-2.822
			c0.828-0.688,1.616-1.414,2.239-2.314c0,1.176,0.512,2.23,1.534,3.141c0.297,0.266,0.451,0.439,0.451,0.542
			c-0.189,0.232-1.132,1.195-0.931,1.595c1.216-1.339,2.27-2.28,3.159-2.833c0.447-0.276,0.782-0.498,1.006-0.663
			c0.223-0.166,0.334-0.277,0.334-0.339c0-0.202-0.139-0.188-0.334-0.091c-0.327,0.163-0.811,0.562-1.047,0.562
			c-1.167,0-1.943-1.658-1.943-2.629v-6.621c0-0.378,0.533-0.85,1.607-1.434c0-0.112-0.123-0.183-0.359-0.194
			c-0.664-0.03-1.953-0.767-3.865-2.252c0.165-0.206,1.389-1.445,1.043-1.791c-0.848,1.06-1.874,2.011-2.893,2.962
			c-2.357,2.2-4.677,4.401-4.677,7.979c0,2.099,0.713,3.714,1.892,5.064C37.377,56.99,37.364,56.744,36.804,57.37z M38.375,45.806
			c0.59-1.178,1.013-1.76,1.248-1.76h0.012c0.563,0.016,2.187,1.184,2.187,1.771v6.959c-0.576,1.104-1.375,1.871-2.187,1.776
			c-0.484-0.056-0.973-0.417-1.424-1.193C37.012,51.289,37.344,47.861,38.375,45.806z M70.143,41.967
			c0.251-0.352,1.163-1.337,0.84-1.821c-0.399,0.625-1.043,1.367-1.936,2.221c-0.318,0.306-0.669,0.627-1.053,0.961
			c-2.292,2.004-4.03,4.606-4.03,7.747c0,2.892,1.376,4.547,3.673,6.058c0,0.143-0.226,0.562-0.685,1.247l0.122,0.186
			c0.565-0.714,1.255-1.423,1.973-2.146c2.263-2.273,4.83-4.69,4.83-7.859C73.877,45.551,72.535,43.618,70.143,41.967z
			 M69.703,54.483c-0.23-0.002-0.451-0.031-0.656-0.084c-3.818-0.982-3.042-10.354-0.929-10.324
			c0.332,0.004,0.643,0.078,0.929,0.205C72.338,45.736,72.675,54.505,69.703,54.483z"/>
		<g>
			<path d="M16.213,54.928c0.537-0.625,1.029-1.319,1.431-2.068c0.881-1.642,0.133-4.165,0.038-4.586
				c-0.144-0.634-0.318-1.269-0.486-1.881c-0.13-0.476-0.265-0.968-0.384-1.452c-0.495-2.021-0.555-3.683-0.192-5.234
				c0.415-1.768,1.475-3.391,2.838-4.726c1.208-1.184,2.684-1.708,2.734-1.736c-0.639,0.576-1.016,1.059-1.33,1.579
				c-0.37,0.612-0.604,1.301-0.71,2.006c-0.044,0.293-0.073,0.587-0.096,0.835l-0.001,0.008v0.008
				c-0.067,1.742,0.488,3.347,1.025,4.899c0.569,1.643,1.105,3.191,1.014,4.937c-0.055,1.065-0.426,2.173-1.07,3.204
				c-0.414,0.66-0.943,1.304-1.574,1.912C18.815,53.246,16.248,54.968,16.213,54.928z"/>
			<path d="M25.503,55.301c0.704-0.398,1.239-0.718,1.899-1.188c1.104-0.785,2.523-2.031,3.411-3.056
				c3.346-3.865,3.5-6.459,3.683-7.611c0.308-1.952,0.051-3.978-0.524-5.886c-0.857-2.84-2.9-5.261-5.249-7.013
				c-2.5-1.865-5.438-2.818-8.562-2.641c-3.316,0.188-7.048,1.414-10.322,1.865c-1.435,0.198-2.889,0.216-4.315-0.059
				c-1.329-0.256-2.587-0.753-3.835-1.262c-0.101,0.13-0.212,0.244-0.354,0.332c0.24,0.215,0.481,0.43,0.723,0.643
				c1.988,1.744,4.143,3.156,6.833,3.441c2.829,0.3,6.231-0.458,9.011-0.855c2.57-0.368,5.266-0.406,7.591,0.913
				c2.291,1.299,3.723,3.641,4.46,6.128c1.435,4.842-0.017,9.836-0.183,10.284c-0.575,1.543-1.72,2.927-2.922,4.026
				c-0.966,0.885-2.589,1.725-4.031,2.543c-0.637,0.362-3.729,2.03-4.535,2.479c-0.211-0.192-0.308-0.335-0.495-0.522
				c-2.205-2.222-4.559-4.387-9.114-3.604C7.411,54.478,6.63,54.761,5.5,55.361c-1.541,0.819-3.193,2.427-4.275,3.776
				C0.801,59.667,0.398,60.21,0,60.759l0.482,0.363c0,0,7.579-6.96,12.916-2.042c0.363,0.335,1.09,0.964,1.297,1.17
				c-0.301,0.197-1.991,1.277-2.299,1.471c0.12,0.208,0.305,0.471,0.436,0.654C14.504,61.338,23.259,56.57,25.503,55.301z"/>
		</g>
	</g>
</g>
</svg>
