<?xml version="1.0" encoding="utf-8"?>
<!-- Generator: Adobe Illustrator 16.0.0, SVG Export Plug-In . SVG Version: 6.00 Build 0)  -->
<!DOCTYPE svg PUBLIC "-//W3C//DTD SVG 1.1//EN" "http://www.w3.org/Graphics/SVG/1.1/DTD/svg11.dtd">
<svg version="1.1" id="Capa_4" xmlns="http://www.w3.org/2000/svg" xmlns:xlink="http://www.w3.org/1999/xlink" x="0px" y="0px"
	 width="29px" height="37px" viewBox="0 0 29 37" enable-background="new 0 0 29 37" xml:space="preserve">
<g>
	<path fill="#CC9A4B" d="M19.897,17.913H9.057c-0.965,0-1.479,0.738-1.154,1.645l6.059,16.762c0.328,0.91,0.856,0.906,1.178-0.003
		l5.922-16.755C21.384,18.651,20.863,17.913,19.897,17.913"/>
	<path fill="#CC9A4B" d="M8.204,17.039h12.148c0.965,0,2.619-0.186,3.109-1.014c0.776-1.316,0.233-3.418-0.983-4.383
		c-0.759-0.598-1.29-1.228-1.168-2.183c0.21-1.644-0.489-2.609-1.241-3.16c-0.781-0.565-1.25-1.395-1.235-2.356
		C18.869,1.515,16.669,0,14.615,0c-0.626,0-1.087,0.074-1.431,0.182c-0.762,0.246-0.511,0.829-0.039,1.029
		c0.249,0.108,0.451,0.321,0.451,0.737c0,1.078-1.249,1.022-2.494,2.27c-0.213,0.214-0.308,0.861,0.976,1.354
		c1.196,0.447,2.249,1.266,3.537,1.437c0.959,0.126,1.018,0.266,0.053,0.284c-1.603,0.028-2.551-1.33-4.909-1.416
		c-0.333,0-1.982-0.309-2.503,2.161c-0.2,0.945,0.626,1.815,1.542,2.12c1.868,0.622,3.306,1.703,5.796,1.833
		c0.962,0.046,0.993,0.228,0.028,0.238C11.376,12.257,6.777,7.8,5.402,12.708c-0.263,0.931-0.351,2.445,0.042,3.197
		C5.835,16.658,7.238,17.039,8.204,17.039"/>
</g>
</svg>
