<?xml version="1.0" encoding="utf-8"?>
<!-- Generator: Adobe Illustrator 16.0.0, SVG Export Plug-In . SVG Version: 6.00 Build 0)  -->
<!DOCTYPE svg PUBLIC "-//W3C//DTD SVG 1.1//EN" "http://www.w3.org/Graphics/SVG/1.1/DTD/svg11.dtd">
<svg version="1.1" id="Capa_1" xmlns="http://www.w3.org/2000/svg" xmlns:xlink="http://www.w3.org/1999/xlink" x="0px" y="0px"
	 width="74px" height="87px" viewBox="0 0 74 87" enable-background="new 0 0 74 87" xml:space="preserve">
<g>
	<g>
		<path fill="#FFFFFF" d="M0.047,75.17l0.004,5.41v1.966L0.061,87h4.222l-0.003-5.467l6.729-0.006c0.14,0,0.273-0.057,0.309-0.275
			l-0.003-1.351c-0.032-0.216-0.154-0.271-0.28-0.277l-6.754,0.007V78.08l-0.004-0.359v-1.183c-0.003-0.485,0.223-1.357,1.189-1.357
			l5.228-0.007h3.18v-2.551L2.533,72.627C1.164,72.63,0.047,73.77,0.047,75.17"/>
		<path fill="#FFFFFF" d="M72.066,84.732c0-0.248-0.101-0.326-0.223-0.352h-4.345l-1.037,0.004h-1.293
			c-0.963,0.003-1.193-0.874-1.193-1.363v-1.181l-0.005-0.359l-0.002-8.896h-4.226l0.008,11.836
			c0.003,1.393,1.121,2.535,2.488,2.535l9.586-0.008c0.13-0.024,0.245-0.104,0.241-0.359l0.01-0.003l-0.002-1.857L72.066,84.732z"/>
		<path fill="#FFFFFF" d="M43.453,72.602l-0.194-0.004L32,72.612c-1.365-0.005-2.486,1.136-2.486,2.532l0.004,4.867v0.104v4.325
			c0.003,1.395,1.128,2.533,2.493,2.537l9.614-0.007c0.14-0.025,0.247-0.104,0.247-0.36l0.005-1.86c0-0.245-0.107-0.323-0.234-0.349
			l-4.375,0.004h-1.031h-1.301c-0.956,0-1.183-0.873-1.183-1.361v-1.176v-0.365v-1.388l-0.003-0.111v-1.946l0.003-0.359
			l-0.007-1.183c0.004-0.484,0.227-1.357,1.186-1.357h2.328h-0.003l6.201-0.007c0.151-0.004,0.305-0.068,0.305-0.363V72.96
			C43.76,72.666,43.604,72.602,43.453,72.602"/>
		<path fill="#FFFFFF" d="M24.991,72.612l-8.669,0.011v2.551l3.409-0.004v-0.004l2.713-0.004c0.959,0,1.189,0.873,1.189,1.362v1.185
			v0.363l0.003,1.541l-9.409,0.008c-0.353,0.003-0.802,0.33-0.802,0.891l0.004,0.291v0.891v2.756c0,1.351,1.056,2.469,2.364,2.533
			v0.007l0.128,0.004l7.334-0.011h1.742h0.125h2.356l0.004-2.541l-0.004-1.918v-0.456v-1.502l-0.007-5.413
			C27.474,73.75,26.36,72.612,24.991,72.612 M19.739,84.436l0.003-0.004h-1.825c-0.927-0.016-1.146-0.873-1.146-1.354v-1.552
			l6.866-0.004l0.003,2.914H19.739z"/>
		<path fill="#FFFFFF" d="M55.134,72.59l-8.67,0.008v2.555l3.418-0.004l-0.004-0.008h2.713c0.958,0,1.181,0.877,1.186,1.365v1.179
			l0.003,0.366l-0.003,1.545L44.373,79.6c-0.354,0.003-0.8,0.326-0.798,0.891l-0.002,0.295l0.002,0.887v2.756
			c0,1.354,1.049,2.468,2.361,2.532l0.003,0.012l0.127-0.004l7.336-0.003l1.746-0.005h0.122h2.36l-0.004-2.544v-1.911v-0.46v-1.504
			l-0.011-5.411C57.619,73.729,56.499,72.59,55.134,72.59 M49.889,84.414V84.41l-1.829,0.004c-0.92-0.02-1.15-0.881-1.146-1.363
			v-1.552l6.865-0.003v2.914L49.889,84.414z"/>
	</g>
	<g>
		<defs>
			<path id="SVGID_1_" d="M6.927,0.046C3.115,0.05-0.003,3.235,0,7.14l0.004,10.197l0.007,5.497L0.04,66.318l11.798-0.007
				l-0.007-15.237l5.274-0.004l0.014,15.234l11.788-0.008l-0.011-15.236l5.461-0.005l0.004,2.828l0.003,12.413l11.81-0.015
				l-0.012-15.233l11.045-0.01l15.517-0.008c0.388-0.004,0.769-0.156,0.841-0.773l-0.004-3.779c-0.068-0.58-0.406-0.746-0.779-0.758
				l-15.578,0.015L46.16,45.743l-0.005-4.326l-0.003-1.006v-3.284c0-1.377,0.626-3.802,3.301-3.808l6.504-0.005l-0.004,0.003
				l17.601-0.017l-0.004-7.117l-32.274,0.018c-3.811,0.005-6.936,3.196-6.933,7.096l0.011,12.456h-5.454L28.885,31.02l-0.007-5.313
				v-1.731c0-1.38,0.636-3.801,3.312-3.801l6.499-0.007l-0.01,0.001l34.662-0.022l-0.004-7.124l-49.32,0.034
				c-3.815,0.002-6.938,3.196-6.934,7.094l0.011,8.201v5.5l0.007,11.914l-5.275,0.003l-0.021-25.769l-0.003-5.301v-0.004v-1.006
				l-0.004-2.719c0.004-1.385,0.629-3.812,3.306-3.818h6.5L21.6,7.158l51.734-0.036L73.327,0L6.927,0.046z"/>
		</defs>
		<clipPath id="SVGID_2_">
			<use xlink:href="#SVGID_1_"  overflow="visible"/>
		</clipPath>
		
			<linearGradient id="SVGID_3_" gradientUnits="userSpaceOnUse" x1="-380.8853" y1="335.168" x2="-379.0454" y2="335.168" gradientTransform="matrix(32.6415 32.5946 32.5946 -32.6415 1511.5625 23355.752)">
			<stop  offset="0" style="stop-color:#932428"/>
			<stop  offset="1" style="stop-color:#A9252E"/>
		</linearGradient>
		<polygon clip-path="url(#SVGID_2_)" fill="url(#SVGID_3_)" points="35.838,-42.227 111.457,33.281 36.416,108.431 -39.2,32.922 		
			"/>
	</g>
</g>
</svg>
