<?xml version="1.0" encoding="utf-8"?>
<!-- Generator: Adobe Illustrator 16.0.0, SVG Export Plug-In . SVG Version: 6.00 Build 0)  -->
<!DOCTYPE svg PUBLIC "-//W3C//DTD SVG 1.1//EN" "http://www.w3.org/Graphics/SVG/1.1/DTD/svg11.dtd">
<svg version="1.1" id="Capa_2" xmlns="http://www.w3.org/2000/svg" xmlns:xlink="http://www.w3.org/1999/xlink" x="0px" y="0px"
	 width="29px" height="37px" viewBox="0 0 29 37" enable-background="new 0 0 29 37" xml:space="preserve">
<g>
	<path fill="#CC9A4B" d="M9.446,12.714c0.76,0,1.371,0.611,1.371,1.368c0,0.75-0.611,1.369-1.371,1.369
		c-0.749,0-1.369-0.619-1.369-1.369C8.077,13.326,8.697,12.714,9.446,12.714L9.446,12.714z M9.505,17.867
		c1.842,0,3.333,1.489,3.333,3.323c0,1.842-1.491,3.334-3.333,3.334c-1.843,0-3.335-1.492-3.335-3.334
		C6.17,19.355,7.662,17.867,9.505,17.867L9.505,17.867z M18.453,19.641c0.831,0,1.508,0.678,1.508,1.51
		c0,0.83-0.677,1.506-1.508,1.506s-1.508-0.676-1.508-1.506C16.945,20.318,17.622,19.641,18.453,19.641L18.453,19.641z
		 M28.861,23.889l0.024-0.01c-1.491-4.457-4.01-8.646-7.556-12.191c-3.456-3.465-7.531-5.926-11.859-7.443
		C9.121,4.082,8.73,3.984,8.321,3.984c-1.498,0-2.72,1.214-2.72,2.723c0,1.215,0.805,2.232,1.907,2.575L0,33.016l23.702-7.496
		c0.342,1.109,1.361,1.922,2.584,1.922c1.499,0,2.714-1.223,2.714-2.721C29,24.426,28.943,24.148,28.861,23.889L28.861,23.889z
		 M17.426,26.057c-0.09-0.105-0.179-0.221-0.276-0.318c-1.688-1.688-4.418-1.688-6.105,0c-0.757,0.766-1.174,1.736-1.248,2.732
		l-7.684,2.428l6.601-20.882c3.229,1.083,6.252,2.901,8.819,5.459c2.567,2.567,4.385,5.602,5.461,8.821L17.426,26.057L17.426,26.057
		z M17.426,26.057"/>
</g>
</svg>
