<?xml version="1.0" encoding="utf-8"?>
<!-- Generator: Adobe Illustrator 16.0.0, SVG Export Plug-In . SVG Version: 6.00 Build 0)  -->
<!DOCTYPE svg PUBLIC "-//W3C//DTD SVG 1.1//EN" "http://www.w3.org/Graphics/SVG/1.1/DTD/svg11.dtd">
<svg version="1.1" id="Capa_1" xmlns="http://www.w3.org/2000/svg" xmlns:xlink="http://www.w3.org/1999/xlink" x="0px" y="0px"
	 width="29px" height="37px" viewBox="0 0 29 37" enable-background="new 0 0 29 37" xml:space="preserve">
<g>
	<path fill="#CC9A4B" d="M21.753,11.206l-4.035-6.261c0.157-0.132,0.256-0.331,0.256-0.552v-3.67C17.974,0.324,17.65,0,17.252,0
		h-5.503c-0.399,0-0.724,0.324-0.724,0.723v3.67c0,0.221,0.101,0.419,0.257,0.552l-4.035,6.261
		c-0.075,0.117-0.115,0.253-0.115,0.392v22.463c0,1.621,1.317,2.938,2.938,2.938c0.884,0,1.677-0.392,2.216-1.01
		C12.824,36.608,13.617,37,14.5,37s1.677-0.392,2.216-1.01c0.539,0.618,1.332,1.01,2.215,1.01c1.62,0,2.938-1.317,2.938-2.938
		V11.598C21.868,11.459,21.828,11.323,21.753,11.206L21.753,11.206z M12.472,1.446h4.057V3.67h-4.057V1.446z M12.893,5.117h3.215
		l4.315,6.694v4.55H8.578v-4.55L12.893,5.117z M20.423,24.823H8.578v-7.016h11.845V24.823z M18.931,35.554
		c-0.823,0-1.492-0.669-1.492-1.492c0-0.399-0.324-0.723-0.724-0.723c-0.398,0-0.723,0.323-0.723,0.723
		c0,0.823-0.669,1.492-1.492,1.492s-1.492-0.669-1.492-1.492c0-0.399-0.323-0.723-0.723-0.723c-0.4,0-0.724,0.323-0.724,0.723
		c0,0.823-0.669,1.492-1.492,1.492c-0.822,0-1.492-0.669-1.492-1.492v-7.793h11.846v7.793
		C20.423,34.885,19.754,35.554,18.931,35.554L18.931,35.554z M18.931,35.554"/>
</g>
</svg>
