<?xml version="1.0" encoding="utf-8"?>
<!-- Generator: Adobe Illustrator 16.0.0, SVG Export Plug-In . SVG Version: 6.00 Build 0)  -->
<!DOCTYPE svg PUBLIC "-//W3C//DTD SVG 1.1//EN" "http://www.w3.org/Graphics/SVG/1.1/DTD/svg11.dtd">
<svg version="1.1" xmlns="http://www.w3.org/2000/svg" xmlns:xlink="http://www.w3.org/1999/xlink" x="0px" y="0px" width="33px"
	 height="33px" viewBox="0 0 33 33" enable-background="new 0 0 33 33" xml:space="preserve">
<g id="Capa_1">
	<path fill="#FFFFFF" d="M33,30c0,1.657-1.343,3-3,3H3c-1.657,0-3-1.343-3-3V3c0-1.657,1.343-3,3-3h27c1.657,0,3,1.343,3,3V30z"/>
</g>
<g id="Capa_2">
	<g>
		<path fill="#F6DD9E" stroke="#F6DD9E" stroke-miterlimit="10" d="M9.751,11.449c1.765-0.767,3.952-1.182,6.153-1.182
			c2.205,0,4.205,0.416,5.968,1.185c-3.316,0.103-5.968,2.817-5.968,6.154C15.905,14.208,13.15,11.452,9.751,11.449z"/>
		<circle fill="#CB262A" cx="9.567" cy="17.589" r="1.003"/>
		<path fill="#5DA455" d="M21.957,16.57c-0.555,0-1.004,0.45-1.004,1.01c0,0.555,0.449,1.003,1.004,1.003s1.004-0.448,1.004-1.003
			C22.961,17.021,22.512,16.57,21.957,16.57z"/>
		<g>
			<path fill="#000100" d="M9.722,14.602c-1.649,0-2.991,1.337-2.991,2.987c0,1.655,1.341,2.992,2.991,2.992
				c1.65,0,2.99-1.337,2.99-2.992C12.712,15.938,11.372,14.602,9.722,14.602z M9.722,19.663c-1.145,0-2.071-0.926-2.071-2.074
				c0-1.142,0.926-2.072,2.071-2.072c1.145,0,2.071,0.931,2.071,2.072C11.793,18.737,10.867,19.663,9.722,19.663z M28.32,11.532
				h-4.115c-2.094-1.411-4.961-2.295-8.25-2.295c-3.292,0-6.354,0.882-8.456,2.295H3.58c0.643,0.75,1.11,1.762,1.229,2.455
				c-0.739,1.015-1.175,2.266-1.175,3.62c0,3.401,2.756,6.153,6.158,6.153c1.932,0,3.652-0.884,4.782-2.272
				c0.461,0.544,1.223,1.613,1.38,1.94c0,0,0.885-1.33,1.379-1.938c1.135,1.39,2.852,2.27,4.781,2.27c3.4,0,6.162-2.752,6.162-6.153
				c0-1.354-0.443-2.6-1.184-3.614C27.209,13.296,27.682,12.282,28.32,11.532z M9.792,22.566c-2.736,0-4.959-2.219-4.959-4.959
				s2.223-4.959,4.959-4.959c2.739,0,4.962,2.219,4.962,4.959S12.531,22.566,9.792,22.566z M9.802,11.449
				c1.763-0.767,3.952-1.182,6.153-1.182c2.203,0,4.205,0.416,5.97,1.185c-3.318,0.103-5.971,2.817-5.971,6.154
				C15.95,14.208,13.2,11.452,9.802,11.449z M22.115,22.566c-2.742,0-4.965-2.219-4.965-4.959s2.223-4.959,4.965-4.959
				c2.736,0,4.955,2.219,4.955,4.959S24.852,22.566,22.115,22.566z M22.111,14.588c-1.652,0-2.994,1.337-2.994,2.992
				c0,1.646,1.342,2.986,2.994,2.986c1.646,0,2.986-1.341,2.986-2.986C25.098,15.925,23.758,14.588,22.111,14.588z M22.111,19.646
				c-1.148,0-2.074-0.927-2.074-2.066c0-1.147,0.926-2.072,2.074-2.072c1.143,0,2.066,0.925,2.066,2.072
				C24.178,18.72,23.254,19.646,22.111,19.646z"/>
			<g>
				<g>
					<path fill="#262424" d="M29.709,12.531H29.52v-0.818h0.287c0.143,0,0.328,0.016,0.328,0.238c0,0.103-0.047,0.184-0.168,0.215
						l0.191,0.365h-0.213l-0.166-0.332h-0.07V12.531z M29.709,12.069c0.111,0,0.131,0,0.156-0.013
						c0.061-0.021,0.062-0.065,0.062-0.106c0-0.061-0.01-0.088-0.053-0.102c-0.029-0.012-0.059-0.012-0.166-0.012V12.069z"/>
				</g>
				<path fill="#262424" d="M29.84,11.403c-0.416,0-0.746,0.337-0.746,0.747s0.33,0.741,0.746,0.741c0.404,0,0.74-0.331,0.74-0.741
					S30.244,11.403,29.84,11.403z M29.84,12.756c-0.338,0-0.605-0.272-0.605-0.605s0.268-0.604,0.605-0.604
					c0.326,0,0.605,0.271,0.605,0.604S30.166,12.756,29.84,12.756z"/>
			</g>
		</g>
	</g>
</g>
</svg>
